HIERARCHY
ROOT Hips
{
 OFFSET 0.000000 0.000000 0.000000
 CHANNELS 6 Xposition Yposition Zposition Yrotation Xrotation Zrotation
 JOINT Chest
 {
  OFFSET 0.000000 9.585900 0.002600
  CHANNELS 3 Yrotation Xrotation Zrotation
  JOINT Chest2
  {
   OFFSET 0.000000 9.601200 -0.005300
   CHANNELS 3 Yrotation Xrotation Zrotation
   JOINT Chest3
   {
    OFFSET 0.000000 9.561800 0.000000
    CHANNELS 3 Yrotation Xrotation Zrotation
    JOINT Chest4
    {
     OFFSET 0.000000 9.552100 0.000000
     CHANNELS 3 Yrotation Xrotation Zrotation
     JOINT Neck
     {
      OFFSET 0.000000 14.453000 0.000000
      CHANNELS 3 Yrotation Xrotation Zrotation
      JOINT Head
      {
       OFFSET 0.000000 8.936500 -0.011300
       CHANNELS 3 Yrotation Xrotation Zrotation
       End Site
       {
        OFFSET 0.000000 17.073600 -0.006000
       }
      }
     }
     JOINT RightCollar
     {
      OFFSET -2.921100 9.558500 0.000000
      CHANNELS 3 Yrotation Xrotation Zrotation
      JOINT RightShoulder
      {
       OFFSET -13.519700 0.000000 0.000000
       CHANNELS 3 Yrotation Xrotation Zrotation
       JOINT RightElbow
       {
        OFFSET 0.000000 -29.696600 0.000000
        CHANNELS 3 Yrotation Xrotation Zrotation
        JOINT RightWrist
        {
         OFFSET 0.000000 -24.004700 0.000000
         CHANNELS 3 Yrotation Xrotation Zrotation
         End Site
         {
          OFFSET 0.000000 -17.728500 0.000000
         }
        }
       }
      }
     }
     JOINT LeftCollar
     {
      OFFSET 2.921100 9.558500 0.000000
      CHANNELS 3 Yrotation Xrotation Zrotation
      JOINT LeftShoulder
      {
       OFFSET 13.519700 0.000000 0.000000
       CHANNELS 3 Yrotation Xrotation Zrotation
       JOINT LeftElbow
       {
        OFFSET 0.000000 -29.696600 0.000000
        CHANNELS 3 Yrotation Xrotation Zrotation
        JOINT LeftWrist
        {
         OFFSET 0.000000 -24.004700 0.000000
         CHANNELS 3 Yrotation Xrotation Zrotation
         End Site
         {
          OFFSET 0.000000 -17.728500 0.000000
         }
        }
       }
      }
     }
    }
   }
  }
 }
 JOINT RightHip
 {
  OFFSET -7.771700 -0.012900 -0.001300
  CHANNELS 3 Yrotation Xrotation Zrotation
  JOINT RightKnee
  {
   OFFSET 0.000000 -40.869800 0.001200
   CHANNELS 3 Yrotation Xrotation Zrotation
   JOINT RightAnkle
   {
    OFFSET 0.000000 -39.717900 0.002100
    CHANNELS 3 Yrotation Xrotation Zrotation
    JOINT RightToe
    {
     OFFSET 0.000000 -4.965400 11.033500
     CHANNELS 3 Yrotation Xrotation Zrotation
     End Site
     {
      OFFSET 0.000000 -1.423100 5.872300
     }
    }
   }
  }
 }
 JOINT LeftHip
 {
  OFFSET 7.771700 -0.012900 -0.001300
  CHANNELS 3 Yrotation Xrotation Zrotation
  JOINT LeftKnee
  {
   OFFSET 0.000000 -40.869800 0.001200
   CHANNELS 3 Yrotation Xrotation Zrotation
   JOINT LeftAnkle
   {
    OFFSET 0.000000 -39.717900 0.002100
    CHANNELS 3 Yrotation Xrotation Zrotation
    JOINT LeftToe
    {
     OFFSET 0.000000 -4.965400 11.033500
     CHANNELS 3 Yrotation Xrotation Zrotation
     End Site
     {
      OFFSET 0.000000 -1.423100 5.872300
     }
    }
   }
  }
 }
}
MOTION
Frames: 12
Frame Time: 0.008333
-74.530382 43.927752 23.041746 176.283680 -50.437117 -0.675962 1.751628 20.880778 2.197644 0.158919 2.715758 0.306060 0.215801 4.478608 0.504637 1.089122 17.902443 2.188694 -2.204270 23.679443 -1.565006 -1.999682 -0.132560 -1.109298 8.559922 0.739859 -5.790299 2.914256 -18.475317 -6.492393 -156.181119 -47.087981 -177.935297 -4.196974 -11.946040 -38.049110 -18.087914 -0.016636 1.401640 3.211191 -16.992378 -1.872789 -170.433199 -38.198822 162.481482 7.157261 -9.192499 40.347743 -0.710961 -43.180971 8.459204 -124.946491 68.720757 -124.947478 -5.418477 -14.507632 4.460354 0.244232 -0.601795 0.156836 2.576366 -33.651632 -2.330744 170.319439 64.754324 170.869502 0.508080 -30.901655 -2.652021 0.035716 0.358047 0.182481
-74.509412 43.934184 23.032979 176.327659 -50.454121 -0.681482 1.680939 20.930839 2.157258 0.124445 2.747108 0.309105 0.211066 4.485373 0.508219 1.112047 17.875721 2.184606 -2.143637 23.706635 -1.506401 -1.972586 -0.175446 -1.138328 8.535710 0.757998 -5.743704 2.786365 -18.490893 -6.439052 -156.575125 -47.200016 -177.775908 -4.191826 -11.904597 -38.358661 -18.069636 -0.027913 1.373177 3.343604 -16.930041 -1.879850 -170.523467 -38.232971 162.503111 7.181515 -9.025142 40.748840 -0.734638 -43.151363 8.521268 -125.298684 68.851322 -125.280151 -5.722583 -14.550114 4.439421 0.355704 -0.605881 0.189113 2.580026 -33.651748 -2.334013 170.334892 64.743747 170.893516 0.497641 -30.865661 -2.669523 0.034075 0.347197 0.168414
-74.479334 43.941238 23.023461 176.407444 -50.456113 -0.744739 1.615036 20.950656 2.154033 0.123698 2.748042 0.309661 0.192332 4.507152 0.512275 1.101548 17.879658 2.189820 -2.106792 23.698396 -1.492465 -1.935777 -0.186361 -1.131585 8.499979 0.769068 -5.697551 2.661973 -18.503193 -6.387388 -156.974406 -47.323880 -177.629256 -4.182800 -11.850927 -38.759632 -18.078438 0.018989 1.342689 3.478786 -16.958819 -1.886484 -170.513946 -38.260403 162.504377 7.193386 -8.840033 41.100253 -0.817506 -43.129655 8.644470 -125.677915 68.980624 -125.647518 -6.005781 -14.681118 4.436169 0.382748 -0.535340 0.209266 2.535342 -33.667182 -2.299636 170.387198 64.732728 170.949942 0.528792 -30.807366 -2.691795 0.035711 0.337498 0.112856
-74.442857 43.955473 23.007701 176.525209 -50.492552 -0.855742 1.508648 21.037699 2.163895 0.147416 2.718241 0.308910 0.190308 4.508655 0.513748 1.071571 17.900668 2.198597 -2.076089 23.690586 -1.480145 -1.909472 -0.202489 -1.137452 8.457101 0.776900 -5.654524 2.529793 -18.514597 -6.331145 -157.381263 -47.458170 -177.481515 -4.160042 -11.771310 -39.237596 -18.062314 0.026675 1.326110 3.603272 -16.938886 -1.906906 -170.456719 -38.243063 162.495888 7.178146 -8.643026 41.421727 -0.926513 -43.050871 8.871673 -125.877776 69.043254 -125.830286 -6.465296 -14.849825 4.443134 0.577479 -0.417866 0.282562 2.448086 -33.645622 -2.239204 170.428066 64.722123 170.991246 0.597238 -30.756614 -2.749122 -0.030867 0.302689 0.121799
-74.410775 43.966404 22.993903 176.637619 -50.482164 -0.928076 1.388615 21.084302 2.133227 0.128179 2.737819 0.311769 0.233029 4.455841 0.510819 1.039070 17.920038 2.202973 -2.048899 23.684234 -1.468060 -1.893842 -0.230207 -1.166708 8.410864 0.783567 -5.616999 2.387629 -18.525722 -6.262566 -157.811722 -47.606482 -177.316083 -4.124257 -11.668275 -39.763981 -18.030001 0.010488 1.313425 3.717414 -16.889207 -1.924010 -170.359412 -38.189400 162.475233 7.135074 -8.441124 41.732128 -0.981930 -43.027152 8.983702 -126.124052 69.122763 -126.050240 -6.827085 -15.030865 4.484058 0.758569 -0.311437 0.309501 2.382761 -33.662010 -2.222178 170.478861 64.720474 171.040532 0.625574 -30.731804 -2.753528 -0.027100 0.307526 0.077862
-74.375028 43.972056 22.985018 176.682231 -50.408298 -0.972284 1.326156 21.061899 2.126594 0.117206 2.746735 0.312165 0.199445 4.484838 0.513061 1.066665 17.875139 2.198628 -2.024353 23.678990 -1.457177 -1.863414 -0.243459 -1.156055 8.363674 0.788148 -5.590744 2.248128 -18.531925 -6.178135 -158.281442 -47.763560 -177.120925 -4.082627 -11.548043 -40.307173 -18.028213 0.031016 1.303308 3.816561 -16.914197 -1.933547 -170.170627 -38.144792 162.416635 7.076762 -8.249322 42.040194 -1.021665 -43.076533 9.098081 -126.354157 69.185921 -126.265351 -7.017076 -15.254711 4.565271 0.877272 -0.235018 0.299706 2.343747 -33.742223 -2.185270 170.516141 64.716147 171.073710 0.694430 -30.701979 -2.788037 -0.059878 0.304284 0.046234
-74.347055 43.980683 22.974101 176.737744 -50.334330 -0.988812 1.243495 21.045149 2.082443 0.115423 2.744305 0.312364 0.216057 4.456948 0.512444 1.061511 17.872968 2.199421 -2.022762 23.696041 -1.438901 -1.832224 -0.215224 -1.109221 8.340182 0.789728 -5.581534 2.076745 -18.501241 -6.060787 -158.790927 -47.923461 -176.894836 -4.041994 -11.417977 -40.838904 -18.046884 0.070662 1.294040 3.989903 -16.882055 -1.936460 -170.065361 -38.036288 162.373245 7.007643 -8.086592 42.352533 -1.041871 -43.130791 9.156747 -126.551813 69.217311 -126.460478 -7.173042 -15.483610 4.672305 0.933687 -0.152756 0.274714 2.324509 -33.816046 -2.201762 170.546046 64.729429 171.095569 0.767659 -30.656850 -2.816716 -0.110471 0.288535 0.028580
-74.319129 43.991584 22.963350 176.783597 -50.253155 -1.019252 1.193237 20.993459 2.069164 0.097579 2.768304 0.312661 0.229777 4.429901 0.510207 1.056181 17.870554 2.199886 -2.023247 23.709171 -1.424509 -1.811339 -0.213152 -1.109885 8.249493 0.818617 -5.559296 2.004705 -18.489131 -5.962463 -159.321140 -48.082655 -176.642825 -4.005219 -11.288492 -41.343439 -18.046883 0.093856 1.276850 4.140899 -16.845447 -1.917574 -169.960888 -37.934215 162.317104 6.921527 -7.965683 42.675148 -1.081248 -43.197837 9.236878 -126.742311 69.224706 -126.655384 -7.274432 -15.724348 4.805662 0.927143 -0.066053 0.222186 2.295540 -33.898154 -2.191983 170.593401 64.731133 171.141453 0.811676 -30.614252 -2.838265 -0.142287 0.251878 0.025146
-74.296784 44.004331 22.953804 176.809787 -50.160580 -1.033267 1.133922 20.972912 2.048221 0.102559 2.747823 0.311353 0.226433 4.426817 0.512525 1.041178 17.859531 2.199226 -1.996350 23.690705 -1.436360 -1.801647 -0.202855 -1.104256 8.179761 0.834194 -5.561330 1.956410 -18.463756 -5.859401 -159.847721 -48.237365 -176.375368 -3.975956 -11.162840 -41.820239 -18.017680 0.100731 1.242344 4.246321 -16.836825 -1.876804 -169.817531 -37.863103 162.231137 6.812012 -7.885834 43.015199 -1.109220 -43.282783 9.304749 -126.919906 69.211094 -126.843922 -7.323473 -15.984505 4.954754 0.893150 0.020464 0.160978 2.286397 -33.987454 -2.195603 170.627000 64.736416 171.175251 0.847790 -30.570767 -2.832387 -0.158738 0.226164 -0.010739
-74.270509 44.012897 22.952468 176.749411 -50.007663 -1.047503 1.158553 20.887853 2.098157 0.108341 2.727208 0.310377 0.214922 4.417543 0.511157 1.023337 17.842650 2.195479 -1.962536 23.683306 -1.444489 -1.790155 -0.207978 -1.112435 8.132394 0.855611 -5.570021 1.913855 -18.428221 -5.754580 -160.347485 -48.389185 -176.110150 -3.954359 -11.040260 -42.275437 -17.976008 0.123678 1.200581 4.324391 -16.840796 -1.815386 -169.657629 -37.812377 162.123242 6.680157 -7.830969 43.378200 -1.144849 -43.435321 9.445253 -126.995837 69.181298 -126.925754 -7.229395 -16.269835 5.101020 0.769109 0.135831 0.069193 2.293860 -34.135664 -2.128684 170.662031 64.750084 171.210992 0.901206 -30.536140 -2.825058 -0.189134 0.211079 -0.046219
-74.265459 44.032745 22.945430 176.765959 -49.913437 -1.039198 1.120714 20.849871 2.068027 0.106605 2.720076 0.308942 0.181858 4.443567 0.507856 1.004102 17.802355 2.182265 -1.935385 23.675958 -1.433799 -1.759052 -0.215407 -1.123594 8.094172 0.870718 -5.577562 1.900798 -18.401127 -5.665333 -160.791613 -48.538433 -175.867662 -3.934572 -10.920433 -42.721606 -17.911689 0.115325 1.182161 4.369035 -16.828621 -1.757473 -169.480487 -37.778496 161.999205 6.538652 -7.766352 43.743044 -1.143598 -43.532569 9.443735 -127.268411 69.163254 -127.212126 -7.160828 -16.587435 5.273565 0.626549 0.225112 -0.019926 2.306568 -34.213441 -2.172860 170.718564 64.769580 171.272798 0.920636 -30.505180 -2.822217 -0.177370 0.192939 -0.053498
-74.262977 44.057372 22.940454 176.758568 -49.824888 -1.048805 1.120667 20.819010 2.078786 0.105053 2.712847 0.307443 0.179287 4.432305 0.505413 1.011893 17.767326 2.182296 -1.932502 23.673858 -1.431683 -1.767534 -0.236244 -1.087862 7.988939 0.915451 -5.570588 1.958001 -18.419953 -5.631877 -161.151946 -48.717774 -175.716269 -3.918837 -10.804482 -43.170165 -17.909017 0.135317 1.164532 4.382162 -16.815872 -1.695064 -169.301816 -37.757228 161.876994 6.417894 -7.655844 44.052246 -1.182157 -43.625086 9.533628 -127.460912 69.099499 -127.433045 -7.072861 -16.959655 5.441446 0.475800 0.346410 -0.100139 2.313437 -34.274061 -2.202079 170.679759 64.797487 171.245974 0.958259 -30.481730 -2.816037 -0.190077 0.182677 -0.080618
